<svg aria-hidden="true" style="position: absolute; width: 0; height: 0; overflow: hidden;" version="1.1" xmlns="http://www.w3.org/2000/svg" xmlns:xlink="http://www.w3.org/1999/xlink">
<defs>
<symbol id="icon-logout" viewBox="0 0 41 32" >
<path d="M34.985 14.899h-21.809c-0.006-0-0.012-0-0.019-0-1.023 0-1.854 0.825-1.863 1.846v0.001c0.010 1.022 0.84 1.847 1.863 1.847 0.007 0 0.013-0 0.020-0h21.808l-2.434 2.389c-0.34 0.331-0.551 0.794-0.551 1.305s0.211 0.974 0.55 1.305l0 0c0.734 0.721 1.928 0.721 2.662 0l5.647-5.54c0.043-0.042 0.084-0.085 0.122-0.131l0.002-0.003 0.026-0.038c0.026-0.031 0.053-0.066 0.079-0.102l0.004-0.006 0.021-0.034c0.022-0.032 0.047-0.072 0.071-0.113l0.005-0.009 0.011-0.024c0.019-0.035 0.041-0.081 0.061-0.127l0.005-0.012 0.008-0.019c0.017-0.037 0.036-0.087 0.053-0.138l0.004-0.013 0.004-0.019c0.012-0.038 0.026-0.091 0.037-0.144l0.002-0.012 0.008-0.047c0.019-0.093 0.030-0.2 0.030-0.31 0-0.067-0.004-0.133-0.012-0.198l0.001 0.008c-0.002-0.045-0.011-0.088-0.019-0.132l-0.008-0.047c-0.013-0.065-0.026-0.117-0.041-0.169l0.003 0.013c-0.004-0.006-0.004-0.013-0.006-0.019-0.021-0.064-0.040-0.115-0.061-0.164l0.005 0.012-0.006-0.017c-0.025-0.058-0.048-0.104-0.073-0.149l0.005 0.009-0.011-0.024c-0.028-0.050-0.053-0.090-0.079-0.129l0.004 0.006-0.019-0.032c-0.030-0.043-0.058-0.079-0.087-0.114l0.003 0.003-0.026-0.034c-0.041-0.049-0.081-0.093-0.124-0.135l-0-0-5.647-5.54c-0.341-0.334-0.809-0.54-1.324-0.54-0.002 0-0.004 0-0.007 0h0c-0.482 0-0.964 0.181-1.331 0.54-0.341 0.331-0.552 0.794-0.552 1.306s0.211 0.975 0.551 1.306l0 0 2.434 2.387z"></path>
<path d="M15.398 31.853c5.139 0 9.92-2.502 12.789-6.69 0.2-0.289 0.319-0.646 0.319-1.031 0-0.639-0.329-1.202-0.826-1.528l-0.007-0.004c-0.295-0.197-0.658-0.314-1.047-0.314-0.645 0-1.215 0.32-1.559 0.81l-0.004 0.006c-2.137 3.072-5.65 5.058-9.626 5.058-0.013 0-0.027-0-0.040-0h0.002c-6.415 0-11.633-5.12-11.633-11.415 0-6.293 5.218-11.413 11.633-11.413 3.87 0 7.477 1.882 9.647 5.033 0.584 0.845 1.752 1.067 2.615 0.497 0.501-0.331 0.827-0.892 0.827-1.529 0-0.388-0.121-0.747-0.327-1.043l0.004 0.006c-2.869-4.169-7.642-6.658-12.766-6.658-8.489-0.002-15.398 6.775-15.398 15.106 0 8.329 6.908 15.108 15.398 15.108z"></path>
</symbol>
<symbol id="icon-challenge" viewBox="0 0 32 32">
<path d="M26.435 16c0 5.763-4.672 10.435-10.435 10.435s-10.435-4.672-10.435-10.435c0-5.763 4.672-10.435 10.435-10.435s10.435 4.672 10.435 10.435z"></path>
<path d="M20.584 11.833h-1.25c0.005-0.138 0.007-0.278 0.007-0.417 0-0.158-0.128-0.285-0.285-0.285v0h-6.112c-0.158 0-0.285 0.128-0.285 0.285v0c0 0.14 0.002 0.279 0.007 0.417h-1.25c-0.158 0-0.285 0.128-0.285 0.285v0c0 1.279 0.334 2.485 0.941 3.397 0.6 0.902 1.398 1.418 2.262 1.469 0.195 0.213 0.403 0.387 0.618 0.519v1.268h-0.479c-0.579 0.001-1.049 0.47-1.049 1.050v0.479h-0.021c-0.158 0-0.285 0.128-0.285 0.285s0.128 0.285 0.285 0.285v0h5.197c0.158 0 0.285-0.128 0.285-0.285s-0.128-0.285-0.285-0.285v0h-0.021v-0.479c-0-0.579-0.47-1.049-1.049-1.050h-0.479v-1.268c0.216-0.132 0.422-0.306 0.618-0.519 0.863-0.050 1.661-0.567 2.261-1.469 0.607-0.911 0.941-2.118 0.941-3.396 0-0.158-0.128-0.285-0.285-0.285v0zM12.546 15.2c-0.5-0.753-0.794-1.736-0.839-2.795h0.991c0.103 1.302 0.408 2.506 0.886 3.462 0.077 0.152 0.155 0.296 0.238 0.431-0.474-0.179-0.913-0.554-1.276-1.098zM19.454 15.2c-0.362 0.544-0.801 0.918-1.276 1.098 0.083-0.136 0.162-0.28 0.238-0.431 0.478-0.956 0.783-2.159 0.886-3.462h0.991c-0.045 1.059-0.339 2.042-0.839 2.795z" fill="black"></path>
</symbol>
</defs>
</svg>
